<svg width="26" height="25" viewBox="0 0 26 25" fill="none" xmlns="http://www.w3.org/2000/svg">
<path fill-rule="evenodd" clip-rule="evenodd" d="M12.9602 0C5.80428 0 0 5.73666 0 12.8093C0 18.4673 3.737 23.261 8.82569 24.9898C9.46177 25.0684 9.7003 24.6755 9.7003 24.3612C9.7003 24.0468 9.7003 23.261 9.7003 22.1608C6.12232 22.9466 5.32722 20.4319 5.32722 20.4319C4.77064 18.9388 3.89602 18.5459 3.89602 18.5459C2.70336 17.7601 3.97554 17.7601 3.97554 17.7601C5.24771 17.8387 5.9633 19.096 5.9633 19.096C7.15596 21.0606 8.98471 20.5105 9.7003 20.1962C9.77982 19.3318 10.1774 18.7817 10.4954 18.4673C7.63303 18.153 4.61162 17.0528 4.61162 12.102C4.61162 10.6875 5.08869 9.58729 5.9633 8.64428C5.88379 8.40853 5.40673 7.0726 6.12232 5.34374C6.12232 5.34374 7.23547 5.0294 9.7003 6.67967C10.7339 6.36533 11.8471 6.28675 12.9602 6.28675C14.0734 6.28675 15.1865 6.44392 16.2202 6.67967C18.685 5.0294 19.7982 5.34374 19.7982 5.34374C20.5138 7.0726 20.0367 8.40853 19.9572 8.72287C20.7523 9.5873 21.3089 10.7661 21.3089 12.1806C21.3089 17.1314 18.2875 18.153 15.4251 18.4673C15.9021 18.8603 16.2997 19.6461 16.2997 20.8249C16.2997 22.5537 16.2997 23.8897 16.2997 24.3612C16.2997 24.6755 16.5382 25.0684 17.1743 24.9898C22.3425 23.261 26 18.4673 26 12.8093C25.9205 5.73666 20.1162 0 12.9602 0Z" fill="white" fill-opacity="0.9"/>
</svg>
