<svg width="21" height="19" viewBox="0 0 21 19" fill="none" xmlns="http://www.w3.org/2000/svg">
<path fill-rule="evenodd" clip-rule="evenodd" d="M10.6516 0.24176C5.30431 0.24176 0.967041 4.52849 0.967041 9.81351C0.967041 14.0415 3.75953 17.6236 7.56206 18.9155C8.03738 18.9742 8.21562 18.6806 8.21562 18.4457C8.21562 18.2108 8.21562 17.6236 8.21562 16.8015C5.54196 17.3887 4.94782 15.5096 4.94782 15.5096C4.53192 14.3939 3.87836 14.1002 3.87836 14.1002C2.98714 13.513 3.93777 13.513 3.93777 13.513C4.8884 13.5717 5.42314 14.5113 5.42314 14.5113C6.31435 15.9794 7.68089 15.5683 8.21562 15.3334C8.27504 14.6875 8.57211 14.2764 8.80977 14.0415C6.67084 13.8066 4.41309 12.9845 4.41309 9.28501C4.41309 8.22801 4.76957 7.40589 5.42314 6.70122C5.36372 6.52506 5.00723 5.52678 5.54196 4.23488C5.54196 4.23488 6.37377 3.99999 8.21562 5.23316C8.98801 4.99827 9.81981 4.93955 10.6516 4.93955C11.4834 4.93955 12.3152 5.057 13.0876 5.23316C14.9295 3.99999 15.7613 4.23488 15.7613 4.23488C16.296 5.52678 15.9395 6.52506 15.8801 6.75995C16.4742 7.40589 16.8902 8.28673 16.8902 9.34373C16.8902 13.0432 14.6324 13.8066 12.4935 14.0415C12.85 14.3351 13.147 14.9224 13.147 15.8032C13.147 17.0951 13.147 18.0934 13.147 18.4457C13.147 18.6806 13.3253 18.9742 13.8006 18.9155C17.6625 17.6236 20.3956 14.0415 20.3956 9.81351C20.3362 4.52849 15.9989 0.24176 10.6516 0.24176Z" fill="black"/>
</svg>
