<svg width="18" height="17" viewBox="0 0 18 17" fill="none" xmlns="http://www.w3.org/2000/svg">
<path d="M4.29217 16.4286H0.798753V5.93434H4.29217V16.4286ZM2.54546 4.46319C1.41524 4.46319 0.593262 3.67857 0.593262 2.59973C0.593262 1.52088 1.51799 0.736267 2.54546 0.736267C3.67568 0.736267 4.49766 1.52088 4.49766 2.59973C4.49766 3.67857 3.67568 4.46319 2.54546 4.46319ZM17.0328 16.4286H13.5394V10.7401C13.5394 9.07281 12.8202 8.58242 11.7927 8.58242C10.7652 8.58242 9.73776 9.36704 9.73776 10.8382V16.4286H6.24436V5.93434H9.53227V7.4055C9.84051 6.71896 11.0735 5.64011 12.8202 5.64011C14.7724 5.64011 16.8273 6.71896 16.8273 9.9555V16.4286H17.0328Z" fill="black"/>
</svg>
