<svg width="22" height="21" viewBox="0 0 22 21" fill="none" xmlns="http://www.w3.org/2000/svg">
<path d="M4.95001 21H0.274996V6.95625H4.95001V21ZM2.6125 4.9875C1.1 4.9875 0 3.9375 0 2.49375C0 1.05 1.2375 0 2.6125 0C4.125 0 5.225 1.05 5.225 2.49375C5.225 3.9375 4.125 4.9875 2.6125 4.9875ZM22 21H17.325V13.3875C17.325 11.1563 16.3625 10.5 14.9875 10.5C13.6125 10.5 12.2375 11.55 12.2375 13.5187V21H7.5625V6.95625H11.9625V8.925C12.375 8.00625 14.025 6.5625 16.3625 6.5625C18.975 6.5625 21.725 8.00625 21.725 12.3375V21H22Z" fill="black"/>
</svg>
