<svg width="18" height="17" viewBox="0 0 18 17" fill="none" xmlns="http://www.w3.org/2000/svg">
<path d="M4.29241 16.4286H0.798997V5.93434H4.29241V16.4286ZM2.54571 4.46319C1.41549 4.46319 0.593506 3.67857 0.593506 2.59973C0.593506 1.52088 1.51823 0.736267 2.54571 0.736267C3.67592 0.736267 4.4979 1.52088 4.4979 2.59973C4.4979 3.67857 3.67592 4.46319 2.54571 4.46319ZM17.0331 16.4286H13.5397V10.7401C13.5397 9.07281 12.8204 8.58242 11.7929 8.58242C10.7655 8.58242 9.738 9.36704 9.738 10.8382V16.4286H6.2446V5.93434H9.53251V7.4055C9.84076 6.71896 11.0737 5.64011 12.8204 5.64011C14.7726 5.64011 16.8276 6.71896 16.8276 9.9555V16.4286H17.0331Z" fill="white" fill-opacity="0.9"/>
</svg>
